<?xml version="1.0" standalone="no"?><svg xmlns:xlink="http://www.w3.org/1999/xlink" xmlns="http://www.w3.org/2000/svg" viewBox="0 0 1000 500" preserveAspectRatio="xMaxYMax slice"><g transform="scale(1.4836795252225519)"><rect x="0" y="0" width="674" height="337" fill="#000000"/><rect x="0" y="0" width="84.25" height="84.25" fill="#000000"/><rect x="0" y="0" width="42.13" height="42.13" fill="#31424e"/><g transform="translate(0,0) scale(2.1065) rotate(0)"><path d="M10 0H20L0 20V10L10 0Z" fill="#4d5d9c"/><path d="M20 10V20H10L20 10Z" fill="#4d5d9c"/></g><rect x="42.13" y="0" width="42.13" height="42.13" fill="#4e5fa0"/><g transform="translate(42.13,0) scale(2.1065) rotate(0)"><path d="M10 0H20V10L10 20H0V10L10 0Z" fill="#4b5a98"/></g><rect x="0" y="42.13" width="42.13" height="42.13" fill="#537185"/><g transform="translate(0,42.13) scale(2.1065) rotate(0)"><path d="M10 0H20V10L10 20H0V10L10 0Z" fill="#131a1e"/></g><rect x="42.13" y="42.13" width="42.13" height="42.13" fill="#7098b2"/><g transform="translate(42.13,42.13) scale(2.1065) rotate(0)"><path d="M10 0L20 10L10 20L0 10L10 0Z" fill="#1b242b"/></g><rect x="84.25" y="0" width="84.25" height="84.25" fill="#2b3a45"/><g transform="translate(84.25,0) scale(4.2125) rotate(0)"><path d="M10 5L5 0L0 5L5 10L0 15L5 20L10 15L15 20L20 15L15 10L20 5L15 0L10 5Z" fill="#1e243c"/></g><rect x="168.5" y="0" width="84.25" height="84.25" fill="#000000"/><rect x="168.5" y="0" width="42.13" height="42.13" fill="#1a1f35"/><g transform="translate(168.5,0) scale(2.1065) rotate(0)"><path d="M13 0H20V7L7 20H0V13L13 0Z" fill="#232a47"/></g><rect x="210.63" y="0" width="42.13" height="42.13" fill="#384371"/><polygon points="252.76,0 252.76,42.13 210.63,42.13" fill="#06070d"/><rect x="168.5" y="42.13" width="42.13" height="42.13" fill="#506c7f"/><g transform="translate(168.5,42.13) scale(2.1065) rotate(0)"><path d="M13 0H20V7L7 20H0V13L13 0Z" fill="#1b2137"/></g><rect x="210.63" y="42.13" width="42.13" height="42.13" fill="#1d233c"/><g transform="translate(210.63,42.13) scale(2.1065) rotate(0)"><path d="M10 0H20V10L10 20H0V10L10 0Z" fill="#455e6e"/></g><rect x="252.75" y="0" width="84.25" height="84.25" fill="#3f4c80"/><g transform="translate(252.75,0) scale(4.2125) rotate(0)"><path d="M10 5L5 0L0 5L5 10L0 15L5 20L10 15L15 20L20 15L15 10L20 5L15 0L10 5Z" fill="#4b5b9a"/></g><rect x="337" y="0" width="84.25" height="84.25" fill="#000000"/><rect x="337" y="0" width="42.13" height="42.13" fill="#2e385e"/><path d="M 337 0 A 42.13 42.13 0 0 1  379.13 42.13 L 337 0 A 42.13 42.13 0 0 0 379.13 42.13" fill="#3a4676"/><rect x="379.13" y="0" width="42.13" height="42.13" fill="#63869e"/><path d="M 379.13 42.13 A 42.13 42.13 0 0 1  421.26 0 L 379.13 42.13 A 42.13 42.13 0 0 0 421.26 0" fill="#86b5d5"/><rect x="337" y="42.13" width="42.13" height="42.13" fill="#050608"/><g transform="translate(337,42.13) scale(2.1065) rotate(0)"><rect width="20" height="2" fill="#1d233c"/><rect y="4" width="20" height="2" fill="#1d233c"/><rect y="8" width="20" height="2" fill="#1d233c"/><rect y="12" width="20" height="2" fill="#1d233c"/><rect y="16" width="20" height="2" fill="#1d233c"/></g><rect x="379.13" y="42.13" width="42.13" height="42.13" fill="#26333c"/><path d="M 379.13 42.13 A 42.13 42.13 0 0 1  421.26 84.26 L 379.13 42.13 A 42.13 42.13 0 0 0 421.26 84.26" fill="#293254"/><rect x="421.25" y="0" width="84.25" height="84.25" fill="#000000"/><rect x="421.25" y="0" width="42.13" height="42.13" fill="#1a2035"/><polygon points="463.38,0 463.38,42.13 421.25,42.13" fill="#5162a5"/><rect x="463.38" y="0" width="42.13" height="42.13" fill="#3b505e"/><g transform="translate(463.38,0) scale(2.1065) rotate(0)"><path d="M10 0L20 10L10 20L0 10L10 0Z" fill="#485692"/></g><rect x="421.25" y="42.13" width="42.13" height="42.13" fill="#151c21"/><g transform="translate(421.25,42.13) scale(2.1065) rotate(0)"><rect width="20" height="10" fill="#192228"/></g><rect x="463.38" y="42.13" width="42.13" height="42.13" fill="#7ba7c4"/><g transform="translate(463.38,42.13) scale(2.1065) rotate(0)"><rect width="2" height="20" fill="#445c6d"/><rect x="4" width="2" height="20" fill="#445c6d"/><rect x="8" width="2" height="20" fill="#445c6d"/><rect x="12" width="2" height="20" fill="#445c6d"/><rect x="16" width="2" height="20" fill="#445c6d"/></g><rect x="505.5" y="0" width="84.25" height="84.25" fill="#000000"/><rect x="505.5" y="0" width="42.13" height="42.13" fill="#0e101c"/><g transform="translate(505.5,0) scale(2.1065) rotate(0)"><rect width="20" height="10" fill="#050708"/></g><rect x="547.63" y="0" width="42.13" height="42.13" fill="#7faccb"/><g transform="translate(547.63,0) scale(2.1065) rotate(0)"><path d="M10 5L5 0L0 5L5 10L0 15L5 20L10 15L15 20L20 15L15 10L20 5L15 0L10 5Z" fill="#10161a"/></g><rect x="505.5" y="42.13" width="42.13" height="42.13" fill="#5f8198"/><path d="M 505.5 42.13 A 42.13 42.13 0 0 1  547.63 84.26 L 505.5 42.13 A 42.13 42.13 0 0 0 547.63 84.26" fill="#3c5260"/><rect x="547.63" y="42.13" width="42.13" height="42.13" fill="#333d67"/><g transform="translate(547.63,42.13) scale(2.1065) rotate(0)"><path d="M10 5L5 0L0 5L5 10L0 15L5 20L10 15L15 20L20 15L15 10L20 5L15 0L10 5Z" fill="#000001"/></g><rect x="589.75" y="0" width="84.25" height="84.25" fill="#000000"/><rect x="589.75" y="0" width="42.13" height="42.13" fill="#3e4b7e"/><path d="M 589.75 0 A 42.13 42.13 0 0 0 631.88 42.13 L 631.88 0L589.75 0" fill="#343f6b"/><rect x="631.88" y="0" width="42.13" height="42.13" fill="#2d3c47"/><g transform="translate(631.88,0) scale(2.1065) rotate(0)"><path d="M10 0H20V10L10 20H0V10L10 0Z" fill="#354854"/></g><rect x="589.75" y="42.13" width="42.13" height="42.13" fill="#486273"/><g transform="translate(589.75,42.13) scale(2.1065) rotate(0)"><path d="M10 0H20L0 20V10L10 0Z" fill="#15192a"/><path d="M20 10V20H10L20 10Z" fill="#15192a"/></g><rect x="631.88" y="42.13" width="42.13" height="42.13" fill="#62859d"/><g transform="translate(631.88,42.13) scale(2.1065) rotate(0)"><path d="M10 0H20V10L10 20H0V10L10 0Z" fill="#191e32"/></g><rect x="0" y="84.25" width="84.25" height="84.25" fill="#000000"/><rect x="0" y="84.25" width="42.13" height="42.13" fill="#25313a"/><g transform="translate(0,84.25) scale(2.1065) rotate(0)"><path d="M10 0L20 10L10 20L0 10L10 0Z" fill="#2e385e"/></g><rect x="42.13" y="84.25" width="42.13" height="42.13" fill="#3c497b"/><g transform="translate(42.13,84.25) scale(2.1065) rotate(0)"><path fill-rule="evenodd" clip-rule="evenodd" d="M10 20C15.5228 20 20 15.5228 20 10C20 4.47715 15.5228 0 10 0C4.47715 0 0 4.47715 0 10C0 15.5228 4.47715 20 10 20ZM10 17C13.866 17 17 13.866 17 10C17 6.13401 13.866 3 10 3C6.13401 3 3 6.13401 3 10C3 13.866 6.13401 17 10 17Z" fill="#0b0e17"/></g><rect x="0" y="126.38" width="42.13" height="42.13" fill="#6589a1"/><circle cx="21.065" cy="147.445" r="21.065" fill="#0f121e"/><rect x="42.13" y="126.38" width="42.13" height="42.13" fill="#293254"/><g transform="translate(42.13,126.38) scale(2.1065) rotate(0)"><rect width="20" height="10" fill="#46548e"/></g><rect x="84.25" y="84.25" width="84.25" height="84.25" fill="#000000"/><rect x="84.25" y="84.25" width="42.13" height="42.13" fill="#4f6b7e"/><g transform="translate(84.25,84.25) scale(2.1065) rotate(0)"><rect width="2" height="20" fill="#000101"/><rect x="4" width="2" height="20" fill="#000101"/><rect x="8" width="2" height="20" fill="#000101"/><rect x="12" width="2" height="20" fill="#000101"/><rect x="16" width="2" height="20" fill="#000101"/></g><rect x="126.38" y="84.25" width="42.13" height="42.13" fill="#040508"/><g transform="translate(126.38,84.25) scale(2.1065) rotate(0)"><path d="M10 1L12.2451 7.90983H19.5106L13.6327 12.1803L15.8779 19.0902L10 14.8197L4.12215 19.0902L6.36729 12.1803L0.489441 7.90983H7.75487L10 1Z" fill="#5061a3"/></g><rect x="84.25" y="126.38" width="42.13" height="42.13" fill="#171b2e"/><circle cx="105.315" cy="147.445" r="21.065" fill="#020305"/><rect x="126.38" y="126.38" width="42.13" height="42.13" fill="#293254"/><g transform="translate(126.38,126.38) scale(2.1065) rotate(0)"><rect width="2" height="20" fill="#5e7f95"/><rect x="4" width="2" height="20" fill="#5e7f95"/><rect x="8" width="2" height="20" fill="#5e7f95"/><rect x="12" width="2" height="20" fill="#5e7f95"/><rect x="16" width="2" height="20" fill="#5e7f95"/></g><rect x="168.5" y="84.25" width="84.25" height="84.25" fill="#000000"/><rect x="168.5" y="84.25" width="42.13" height="42.13" fill="#000000"/><g transform="translate(168.5,84.25) scale(2.1065) rotate(0)"><path d="M10 5L5 0L0 5L5 10L0 15L5 20L10 15L15 20L20 15L15 10L20 5L15 0L10 5Z" fill="#7facca"/></g><rect x="210.63" y="84.25" width="42.13" height="42.13" fill="#2f385f"/><polygon points="210.63,84.25 252.76,84.25 252.76,126.38" fill="#161b2d"/><rect x="168.5" y="126.38" width="42.13" height="42.13" fill="#4e6a7d"/><polygon points="168.5,126.38 210.63,126.38 210.63,168.51" fill="#13191e"/><rect x="210.63" y="126.38" width="42.13" height="42.13" fill="#678ba4"/><g transform="translate(210.63,126.38) scale(2.1065) rotate(0)"><path fill-rule="evenodd" clip-rule="evenodd" d="M10 20C15.5228 20 20 15.5228 20 10C20 4.47715 15.5228 0 10 0C4.47715 0 0 4.47715 0 10C0 15.5228 4.47715 20 10 20ZM10 17C13.866 17 17 13.866 17 10C17 6.13401 13.866 3 10 3C6.13401 3 3 6.13401 3 10C3 13.866 6.13401 17 10 17Z" fill="#6a8fa8"/></g><rect x="252.75" y="84.25" width="84.25" height="84.25" fill="#000000"/><rect x="252.75" y="84.25" width="42.13" height="42.13" fill="#25323b"/><circle cx="273.815" cy="105.315" r="21.065" fill="#11171b"/><rect x="294.88" y="84.25" width="42.13" height="42.13" fill="#0a0c14"/><path d="M 294.88 126.38 A 42.13 42.13 0 0 1  337.01 84.25 L 294.88 126.38 A 42.13 42.13 0 0 0 337.01 84.25" fill="#5e7e95"/><rect x="252.75" y="126.38" width="42.13" height="42.13" fill="#2f3961"/><g transform="translate(252.75,126.38) scale(2.1065) rotate(0)"><rect width="20" height="10" fill="#496375"/></g><rect x="294.88" y="126.38" width="42.13" height="42.13" fill="#425969"/><g transform="translate(294.88,126.38) scale(2.1065) rotate(0)"><rect width="20" height="10" fill="#414f84"/></g><rect x="337" y="84.25" width="84.25" height="84.25" fill="#000000"/><rect x="337" y="84.25" width="42.13" height="42.13" fill="#141829"/><circle cx="358.065" cy="105.315" r="21.065" fill="#3a4676"/><rect x="379.13" y="84.25" width="42.13" height="42.13" fill="#1e243d"/><g transform="translate(379.13,84.25) scale(2.1065) rotate(0)"><rect width="20" height="2" fill="#020303"/><rect y="4" width="20" height="2" fill="#020303"/><rect y="8" width="20" height="2" fill="#020303"/><rect y="12" width="20" height="2" fill="#020303"/><rect y="16" width="20" height="2" fill="#020303"/></g><rect x="337" y="126.38" width="42.13" height="42.13" fill="#5061a4"/><circle cx="358.065" cy="147.445" r="21.065" fill="#4d687a"/><rect x="379.13" y="126.38" width="42.13" height="42.13" fill="#668aa2"/><g transform="translate(379.13,126.38) scale(2.1065) rotate(0)"><rect width="20" height="2" fill="#334551"/><rect y="4" width="20" height="2" fill="#334551"/><rect y="8" width="20" height="2" fill="#334551"/><rect y="12" width="20" height="2" fill="#334551"/><rect y="16" width="20" height="2" fill="#334551"/></g><rect x="421.25" y="84.25" width="84.25" height="84.25" fill="#57758a"/><path d="M 421.25 168.5 A 84.25 84.25 0 0 0 505.5 84.25 L 421.25 84.25L421.25 168.5" fill="#252d4b"/><rect x="505.5" y="84.25" width="84.25" height="84.25" fill="#000000"/><rect x="505.5" y="84.25" width="42.13" height="42.13" fill="#141b20"/><g transform="translate(505.5,84.25) scale(2.1065) rotate(0)"><path fill-rule="evenodd" clip-rule="evenodd" d="M10 20C15.5228 20 20 15.5228 20 10C20 4.47715 15.5228 0 10 0C4.47715 0 0 4.47715 0 10C0 15.5228 4.47715 20 10 20ZM10 17C13.866 17 17 13.866 17 10C17 6.13401 13.866 3 10 3C6.13401 3 3 6.13401 3 10C3 13.866 6.13401 17 10 17Z" fill="#333e68"/></g><rect x="547.63" y="84.25" width="42.13" height="42.13" fill="#4c5b9a"/><g transform="translate(547.63,84.25) scale(2.1065) rotate(0)"><path d="M10 1L12.2451 7.90983H19.5106L13.6327 12.1803L15.8779 19.0902L10 14.8197L4.12215 19.0902L6.36729 12.1803L0.489441 7.90983H7.75487L10 1Z" fill="#678ba4"/></g><rect x="505.5" y="126.38" width="42.13" height="42.13" fill="#5162a6"/><g transform="translate(505.5,126.38) scale(2.1065) rotate(0)"><path d="M10 0H20V10L10 20H0V10L10 0Z" fill="#7ca7c5"/></g><rect x="547.63" y="126.38" width="42.13" height="42.13" fill="#384473"/><g transform="translate(547.63,126.38) scale(2.1065) rotate(0)"><rect width="20" height="2" fill="#232f37"/><rect y="4" width="20" height="2" fill="#232f37"/><rect y="8" width="20" height="2" fill="#232f37"/><rect y="12" width="20" height="2" fill="#232f37"/><rect y="16" width="20" height="2" fill="#232f37"/></g><rect x="589.75" y="84.25" width="84.25" height="84.25" fill="#000000"/><rect x="589.75" y="84.25" width="42.13" height="42.13" fill="#77a1be"/><g transform="translate(589.75,84.25) scale(2.1065) rotate(0)"><path d="M10 5L5 0L0 5L5 10L0 15L5 20L10 15L15 20L20 15L15 10L20 5L15 0L10 5Z" fill="#0a0d15"/></g><rect x="631.88" y="84.25" width="42.13" height="42.13" fill="#78a2be"/><g transform="translate(631.88,84.25) scale(2.1065) rotate(0)"><rect width="2" height="20" fill="#5e7f95"/><rect x="4" width="2" height="20" fill="#5e7f95"/><rect x="8" width="2" height="20" fill="#5e7f95"/><rect x="12" width="2" height="20" fill="#5e7f95"/><rect x="16" width="2" height="20" fill="#5e7f95"/></g><rect x="589.75" y="126.38" width="42.13" height="42.13" fill="#090d0f"/><g transform="translate(589.75,126.38) scale(2.1065) rotate(0)"><path fill-rule="evenodd" clip-rule="evenodd" d="M10 20C15.5228 20 20 15.5228 20 10C20 4.47715 15.5228 0 10 0C4.47715 0 0 4.47715 0 10C0 15.5228 4.47715 20 10 20ZM10 17C13.866 17 17 13.866 17 10C17 6.13401 13.866 3 10 3C6.13401 3 3 6.13401 3 10C3 13.866 6.13401 17 10 17Z" fill="#77a1bd"/></g><rect x="631.88" y="126.38" width="42.13" height="42.13" fill="#7097b2"/><g transform="translate(631.88,126.38) scale(2.1065) rotate(0)"><path d="M10 0L20 10L10 20L0 10L10 0Z" fill="#7aa5c2"/></g><rect x="0" y="168.5" width="84.25" height="84.25" fill="#000000"/><rect x="0" y="168.5" width="42.13" height="42.13" fill="#5f8198"/><g transform="translate(0,168.5) scale(2.1065) rotate(0)"><path d="M10 0H20L0 20V10L10 0Z" fill="#000000"/><path d="M20 10V20H10L20 10Z" fill="#000000"/></g><rect x="42.13" y="168.5" width="42.13" height="42.13" fill="#242b49"/><circle cx="63.19500000000001" cy="189.565" r="21.065" fill="#3c487a"/><rect x="0" y="210.63" width="42.13" height="42.13" fill="#2f3960"/><g transform="translate(0,210.63) scale(2.1065) rotate(0)"><path fill-rule="evenodd" clip-rule="evenodd" d="M10 20C15.5228 20 20 15.5228 20 10C20 4.47715 15.5228 0 10 0C4.47715 0 0 4.47715 0 10C0 15.5228 4.47715 20 10 20ZM10 17C13.866 17 17 13.866 17 10C17 6.13401 13.866 3 10 3C6.13401 3 3 6.13401 3 10C3 13.866 6.13401 17 10 17Z" fill="#06080a"/></g><rect x="42.13" y="210.63" width="42.13" height="42.13" fill="#010102"/><g transform="translate(42.13,210.63) scale(2.1065) rotate(0)"><rect width="20" height="10" fill="#608299"/></g><rect x="84.25" y="168.5" width="84.25" height="84.25" fill="#000000"/><rect x="84.25" y="168.5" width="42.13" height="42.13" fill="#7ba7c4"/><g transform="translate(84.25,168.5) scale(2.1065) rotate(0)"><path d="M10 0H20L0 20V10L10 0Z" fill="#698ea7"/><path d="M20 10V20H10L20 10Z" fill="#698ea7"/></g><rect x="126.38" y="168.5" width="42.13" height="42.13" fill="#161b2d"/><circle cx="147.445" cy="189.565" r="21.065" fill="#1a1f35"/><rect x="84.25" y="210.63" width="42.13" height="42.13" fill="#2d3c47"/><g transform="translate(84.25,210.63) scale(2.1065) rotate(0)"><path fill-rule="evenodd" clip-rule="evenodd" d="M10 20C15.5228 20 20 15.5228 20 10C20 4.47715 15.5228 0 10 0C4.47715 0 0 4.47715 0 10C0 15.5228 4.47715 20 10 20ZM10 17C13.866 17 17 13.866 17 10C17 6.13401 13.866 3 10 3C6.13401 3 3 6.13401 3 10C3 13.866 6.13401 17 10 17Z" fill="#242b49"/></g><rect x="126.38" y="210.63" width="42.13" height="42.13" fill="#78a2be"/><g transform="translate(126.38,210.63) scale(2.1065) rotate(0)"><path d="M10 0H20V10L10 20H0V10L10 0Z" fill="#759eba"/></g><rect x="168.5" y="168.5" width="84.25" height="84.25" fill="#1f2931"/><g transform="translate(168.5,168.5) scale(4.2125) rotate(0)"><path d="M10 5L5 0L0 5L5 10L0 15L5 20L10 15L15 20L20 15L15 10L20 5L15 0L10 5Z" fill="#212843"/></g><rect x="252.75" y="168.5" width="84.25" height="84.25" fill="#000000"/><rect x="252.75" y="168.5" width="42.13" height="42.13" fill="#030305"/><circle cx="273.815" cy="189.565" r="21.065" fill="#0e1317"/><rect x="294.88" y="168.5" width="42.13" height="42.13" fill="#394575"/><circle cx="315.945" cy="189.565" r="21.065" fill="#0f121e"/><rect x="252.75" y="210.63" width="42.13" height="42.13" fill="#0f121e"/><polygon points="294.88,210.63 294.88,252.76 252.75,252.76" fill="#31424e"/><rect x="294.88" y="210.63" width="42.13" height="42.13" fill="#0a0c14"/><g transform="translate(294.88,210.63) scale(2.1065) rotate(0)"><path d="M10 5L5 0L0 5L5 10L0 15L5 20L10 15L15 20L20 15L15 10L20 5L15 0L10 5Z" fill="#36416e"/></g><rect x="337" y="168.5" width="84.25" height="84.25" fill="#000000"/><rect x="337" y="168.5" width="42.13" height="42.13" fill="#060809"/><g transform="translate(337,168.5) scale(2.1065) rotate(0)"><path d="M10 0L20 10L10 20L0 10L10 0Z" fill="#2e375e"/></g><rect x="379.13" y="168.5" width="42.13" height="42.13" fill="#1d233a"/><path d="M 379.13 210.63 A 42.13 42.13 0 0 1  421.26 168.5 L 379.13 210.63 A 42.13 42.13 0 0 0 421.26 168.5" fill="#3b4778"/><rect x="337" y="210.63" width="42.13" height="42.13" fill="#496374"/><g transform="translate(337,210.63) scale(2.1065) rotate(0)"><path d="M13 0H20V7L7 20H0V13L13 0Z" fill="#698fa8"/></g><rect x="379.13" y="210.63" width="42.13" height="42.13" fill="#1c262d"/><g transform="translate(379.13,210.63) scale(2.1065) rotate(0)"><rect width="20" height="2" fill="#394575"/><rect y="4" width="20" height="2" fill="#394575"/><rect y="8" width="20" height="2" fill="#394575"/><rect y="12" width="20" height="2" fill="#394575"/><rect y="16" width="20" height="2" fill="#394575"/></g><rect x="421.25" y="168.5" width="84.25" height="84.25" fill="#000000"/><rect x="421.25" y="168.5" width="42.13" height="42.13" fill="#83b1d1"/><g transform="translate(421.25,168.5) scale(2.1065) rotate(0)"><path d="M10 5L5 0L0 5L5 10L0 15L5 20L10 15L15 20L20 15L15 10L20 5L15 0L10 5Z" fill="#1e2930"/></g><rect x="463.38" y="168.5" width="42.13" height="42.13" fill="#749db9"/><g transform="translate(463.38,168.5) scale(2.1065) rotate(0)"><path d="M10 1L12.2451 7.90983H19.5106L13.6327 12.1803L15.8779 19.0902L10 14.8197L4.12215 19.0902L6.36729 12.1803L0.489441 7.90983H7.75487L10 1Z" fill="#141829"/></g><rect x="421.25" y="210.63" width="42.13" height="42.13" fill="#35406c"/><circle cx="442.315" cy="231.695" r="21.065" fill="#3e4b7e"/><rect x="463.38" y="210.63" width="42.13" height="42.13" fill="#0a0d15"/><circle cx="484.445" cy="231.695" r="21.065" fill="#3b4879"/><rect x="505.5" y="168.5" width="84.25" height="84.25" fill="#000000"/><rect x="505.5" y="168.5" width="42.13" height="42.13" fill="#2a3355"/><circle cx="526.565" cy="189.565" r="21.065" fill="#62849b"/><rect x="547.63" y="168.5" width="42.13" height="42.13" fill="#3b505e"/><path d="M 547.63 210.63 A 42.13 42.13 0 0 1  589.76 168.5 L 547.63 210.63 A 42.13 42.13 0 0 0 589.76 168.5" fill="#4e5e9f"/><rect x="505.5" y="210.63" width="42.13" height="42.13" fill="#3a4675"/><path d="M 505.5 210.63 A 42.13 42.13 0 0 0 547.63 252.76 L 547.63 210.63L505.5 210.63" fill="#3e4a7d"/><rect x="547.63" y="210.63" width="42.13" height="42.13" fill="#5060a2"/><g transform="translate(547.63,210.63) scale(2.1065) rotate(0)"><rect width="20" height="2" fill="#7eabc9"/><rect y="4" width="20" height="2" fill="#7eabc9"/><rect y="8" width="20" height="2" fill="#7eabc9"/><rect y="12" width="20" height="2" fill="#7eabc9"/><rect y="16" width="20" height="2" fill="#7eabc9"/></g><rect x="589.75" y="168.5" width="84.25" height="84.25" fill="#415767"/><path d="M 589.75 252.75 A 84.25 84.25 0 0 1  674 168.5 L 589.75 252.75 A 84.25 84.25 0 0 0 674 168.5" fill="#2f3960"/><rect x="0" y="252.75" width="84.25" height="84.25" fill="#000000"/><rect x="0" y="252.75" width="42.13" height="42.13" fill="#4c5c9b"/><g transform="translate(0,252.75) scale(2.1065) rotate(0)"><path d="M10 0L20 10L10 20L0 10L10 0Z" fill="#5161a4"/></g><rect x="42.13" y="252.75" width="42.13" height="42.13" fill="#3a4676"/><polygon points="42.13,252.75 84.26,252.75 42.13,294.88" fill="#4f5fa0"/><rect x="0" y="294.88" width="42.13" height="42.13" fill="#1a1f35"/><g transform="translate(0,294.88) scale(2.1065) rotate(0)"><path d="M10 1L12.2451 7.90983H19.5106L13.6327 12.1803L15.8779 19.0902L10 14.8197L4.12215 19.0902L6.36729 12.1803L0.489441 7.90983H7.75487L10 1Z" fill="#182026"/></g><rect x="42.13" y="294.88" width="42.13" height="42.13" fill="#252d4b"/><g transform="translate(42.13,294.88) scale(2.1065) rotate(0)"><path d="M10 5L5 0L0 5L5 10L0 15L5 20L10 15L15 20L20 15L15 10L20 5L15 0L10 5Z" fill="#191f34"/></g><rect x="84.25" y="252.75" width="84.25" height="84.25" fill="#374370"/><path d="M 84.25 337 A 84.25 84.25 0 0 1  168.5 252.75 L 84.25 337 A 84.25 84.25 0 0 0 168.5 252.75" fill="#000001"/><rect x="168.5" y="252.75" width="84.25" height="84.25" fill="#3f4c81"/><g transform="translate(168.5,252.75) scale(4.2125) rotate(0)"><path d="M10 0H20V10L10 20H0V10L10 0Z" fill="#0c0e18"/></g><rect x="252.75" y="252.75" width="84.25" height="84.25" fill="#000000"/><rect x="252.75" y="252.75" width="42.13" height="42.13" fill="#040508"/><g transform="translate(252.75,252.75) scale(2.1065) rotate(0)"><path d="M13 0H20V7L7 20H0V13L13 0Z" fill="#6e94ae"/></g><rect x="294.88" y="252.75" width="42.13" height="42.13" fill="#4a5a97"/><g transform="translate(294.88,252.75) scale(2.1065) rotate(0)"><path d="M10 0H20L0 20V10L10 0Z" fill="#161d23"/><path d="M20 10V20H10L20 10Z" fill="#161d23"/></g><rect x="252.75" y="294.88" width="42.13" height="42.13" fill="#010101"/><path d="M 252.75 337.01 A 42.13 42.13 0 0 1  294.88 294.88 L 252.75 337.01 A 42.13 42.13 0 0 0 294.88 294.88" fill="#010202"/><rect x="294.88" y="294.88" width="42.13" height="42.13" fill="#1f2a31"/><path d="M 294.88 294.88 A 42.13 42.13 0 0 1  337.01 337.01 L 294.88 294.88 A 42.13 42.13 0 0 0 337.01 337.01" fill="#020304"/><rect x="337" y="252.75" width="84.25" height="84.25" fill="#232a48"/><polygon points="337,252.75 421.25,252.75 421.25,337" fill="#1f2a31"/><rect x="421.25" y="252.75" width="84.25" height="84.25" fill="#7199b4"/><g transform="translate(421.25,252.75) scale(4.2125) rotate(0)"><path fill-rule="evenodd" clip-rule="evenodd" d="M10 20C15.5228 20 20 15.5228 20 10C20 4.47715 15.5228 0 10 0C4.47715 0 0 4.47715 0 10C0 15.5228 4.47715 20 10 20ZM10 17C13.866 17 17 13.866 17 10C17 6.13401 13.866 3 10 3C6.13401 3 3 6.13401 3 10C3 13.866 6.13401 17 10 17Z" fill="#181d31"/></g><rect x="505.5" y="252.75" width="84.25" height="84.25" fill="#000000"/><rect x="505.5" y="252.75" width="42.13" height="42.13" fill="#07080e"/><g transform="translate(505.5,252.75) scale(2.1065) rotate(0)"><rect width="2" height="20" fill="#678ba3"/><rect x="4" width="2" height="20" fill="#678ba3"/><rect x="8" width="2" height="20" fill="#678ba3"/><rect x="12" width="2" height="20" fill="#678ba3"/><rect x="16" width="2" height="20" fill="#678ba3"/></g><rect x="547.63" y="252.75" width="42.13" height="42.13" fill="#506d80"/><g transform="translate(547.63,252.75) scale(2.1065) rotate(0)"><rect width="2" height="20" fill="#415767"/><rect x="4" width="2" height="20" fill="#415767"/><rect x="8" width="2" height="20" fill="#415767"/><rect x="12" width="2" height="20" fill="#415767"/><rect x="16" width="2" height="20" fill="#415767"/></g><rect x="505.5" y="294.88" width="42.13" height="42.13" fill="#030304"/><path d="M 505.5 294.88 A 42.13 42.13 0 0 1  547.63 337.01 L 505.5 294.88 A 42.13 42.13 0 0 0 547.63 337.01" fill="#3f4c80"/><rect x="547.63" y="294.88" width="42.13" height="42.13" fill="#243039"/><path d="M 547.63 294.88 A 42.13 42.13 0 0 1  589.76 337.01 L 547.63 294.88 A 42.13 42.13 0 0 0 589.76 337.01" fill="#61839a"/><rect x="589.75" y="252.75" width="84.25" height="84.25" fill="#252c4b"/><path d="M 589.75 337 A 84.25 84.25 0 0 0 674 252.75 L 589.75 252.75L589.75 337" fill="#2e385e"/></g></svg>