<svg width="341" height="85" viewBox="0 0 341 85" fill="none" xmlns="http://www.w3.org/2000/svg">
<mask id="mask0_42_38" style="mask-type:alpha" maskUnits="userSpaceOnUse" x="0" y="0" width="341" height="85">
<rect width="341" height="85" fill="#D9D9D9"/>
</mask>
<g mask="url(#mask0_42_38)">
<path d="M181.88 0.519993H194.6V85H185.12V24.16L177.8 85H170.96L163.28 23.8V85H153.8V0.519993H165.92L174.32 55.12L181.88 0.519993ZM220.391 86.2C210.671 86.2 203.351 81.28 203.351 67.96V0.519993H213.191V67.96C213.191 74.56 216.671 76.84 220.511 76.84H220.751C224.831 76.84 228.311 74.56 228.311 67.96V0.519993H238.031V67.96C238.031 81.28 230.711 86.2 220.991 86.2H220.391ZM262.447 86.2C255.247 86.2 245.887 81.88 245.887 68.68V55.6H255.247V67.96C255.247 74.56 258.727 76.84 262.687 76.84H262.927C266.527 76.84 270.007 74.56 270.007 67.96V57.52C270.007 42.52 245.887 45.28 245.887 24.64V15.64C245.887 2.44 255.007 -0.560007 262.927 -0.560007H263.527C271.567 -0.560007 279.727 3.87999 279.727 16.36V28.72H270.367V16.96C270.367 10.48 266.887 7.96 262.807 7.96H262.687C259.087 7.96 255.367 10.48 255.367 16.96V23.08C255.367 38.2 279.727 34.84 279.727 56.32V68.68C279.727 81.88 271.087 86.2 263.047 86.2H262.447ZM288.214 85V0.519993H297.694V85H288.214ZM323.158 86.2C313.558 86.2 306.358 81.28 306.358 67.96V16.96C306.358 4.48 313.558 -0.560007 323.158 -0.560007H323.758C333.358 -0.560007 340.678 4.48 340.678 17.68V28.84H330.958V16.96C330.958 10.48 327.478 7.96 323.518 7.96H323.398C319.558 7.96 316.078 10.48 316.078 16.96V67.96C316.078 74.56 319.558 76.84 323.278 76.84H323.518C327.478 76.84 330.958 74.56 330.958 67.96V53.2H340.678V67.96C340.678 81.28 333.358 86.2 323.758 86.2H323.158Z" fill="#7DACD7"/>
<circle cx="42.3156" cy="42.5941" r="42.5" transform="rotate(-45.48 42.3156 42.5941)" fill="url(#paint0_angular_42_38)"/>
<circle cx="102.36" cy="42.6129" r="42.5" transform="rotate(134.52 102.36 42.6129)" fill="url(#paint1_angular_42_38)"/>
</g>
<defs>
<radialGradient id="paint0_angular_42_38" cx="0" cy="0" r="1" gradientUnits="userSpaceOnUse" gradientTransform="translate(42.3156 42.5941) rotate(90) scale(42.5)">
<stop stop-color="#86B5D5"/>
<stop offset="1" stop-color="#093FF8"/>
</radialGradient>
<radialGradient id="paint1_angular_42_38" cx="0" cy="0" r="1" gradientUnits="userSpaceOnUse" gradientTransform="translate(102.36 42.6129) rotate(90) scale(42.5)">
<stop stop-color="#86B5D5"/>
<stop offset="1" stop-color="#043AFA"/>
</radialGradient>
</defs>
</svg>
